[center]
[img]http://ist1-2.filesor.com/pimpandhost.com/5/4/9/4/54947/x/4/s/C/x4sC/9436692_little-deaths-movie-poster-600x886_m.jpg[/img]


 
http://www.imdb.com/title/tt1614456/
Complete name                            : C:\Users\root\Desktop\Little.Deaths.2011.Dvd.Rip.Ac3.Xvid.ANALOG\L.D.2011.DDR.ANALOG.avi
Format                                   : AVI
Format/Info                              : Audio Video Interleave
File size                                : 1.03 GiB
Duration                                 : 1h 34mn
Overall bit rate                         : 1 548 Kbps
Movie name                               : L.D.2011.DDR.ANALOG
Writing application                      : VirtualDubMod build 2178/release
Copyright                                : ANALOG

Video
ID                                       : 0
Format                                   : MPEG-4 Visual
Format profile                           : Advanced Simple@L5
Format settings, BVOP                    : No
Format settings, QPel                    : No
Format settings, GMC                     : No warppoints
Format settings, Matrix                  : Custom
Codec ID                                 : XVID
Codec ID/Hint                            : XviD
Duration                                 : 1h 34mn
Bit rate                                 : 1 221 Kbps
Width                                    : 720 pixels
Height                                   : 304 pixels
Display aspect ratio                     : 2.35:1
Frame rate                               : 23.976 fps
Color space                              : YUV
Chroma subsampling                       : 4:2:0
Bit depth                                : 8 bits
Scan type                                : Progressive
Compression mode                         : Lossy
Bits/(Pixel*Frame)                       : 0.233
Stream size                              : 830 MiB (79%)
Writing library                          : XviD 64

Audio
ID                                       : 1
Format                                   : AC-3
Format/Info                              : Audio Coding 3
Mode extension                           : CM (complete main)
Codec ID                                 : 2000
Duration                                 : 1h 34mn
Bit rate mode                            : Constant
Bit rate                                 : 320 Kbps
Channel(s)                               : 6 channels
Channel positions                        : Front: L C R, Side: L R, LFE
Sampling rate                            : 48.0 KHz
Bit depth                                : 16 bits
Compression mode                         : Lossy
Stream size                              : 217 MiB (21%)
Alignment                                : Split accross interleaves
Interleave, duration                     : 96 ms (2.30 video frames)
Interleave, preload duration             : 96 ms
Language                                 : English
Sample                                   : Yes!
Source                                   : Little Deaths 2011 NTSC DVDR p2p   THANX 


[img]http://img64.imageshack.us/img64/9805/ld2011ddranalogavisnaps.png[/img]
[img]http://img844.imageshack.us/img844/9805/ld2011ddranalogavisnaps.png[/img]
[img]http://img41.imageshack.us/img41/9805/ld2011ddranalogavisnaps.png[/img]
[img]http://img829.imageshack.us/img829/9805/ld2011ddranalogavisnaps.png[/img][/center]